<?xml version="1.0" standalone="no"?>
<!DOCTYPE svg PUBLIC "-//W3C//DTD SVG 20010904//EN"
 "http://www.w3.org/TR/2001/REC-SVG-20010904/DTD/svg10.dtd">
<svg version="1.0" xmlns="http://www.w3.org/2000/svg"
 width="1024.000000pt" height="1024.000000pt" viewBox="0 0 1024.000000 1024.000000"
 preserveAspectRatio="xMidYMid meet">

<g transform="translate(0.000000,1024.000000) scale(0.100000,-0.100000)"
fill="#000000" stroke="none">
<path d="M5142 8938 c-6 -6 -12 -18 -12 -26 0 -7 -4 -10 -10 -7 -5 3 -10 -1
-10 -9 0 -17 -24 -12 -52 11 -14 13 -18 12 -28 -7 l-12 -23 -27 32 c-28 32
-41 32 -41 -1 0 -10 -4 -18 -10 -18 -5 0 -6 -8 -3 -17 5 -14 -39 32 -65 67 -2
3 -9 -3 -16 -12 -8 -11 -17 -14 -27 -7 -8 5 -17 9 -21 9 -10 0 -51 -41 -65
-65 -6 -11 -16 -19 -23 -17 -7 1 -27 -3 -46 -10 -28 -10 -39 -10 -55 0 -31 19
-120 -9 -294 -94 -39 -19 -74 -34 -78 -34 -8 0 -62 -36 -83 -56 -7 -6 -26 -17
-43 -24 -17 -7 -31 -16 -31 -21 0 -5 -5 -9 -11 -9 -6 0 -20 -11 -31 -25 -10
-13 -37 -30 -59 -36 -21 -7 -39 -16 -39 -20 0 -5 -18 -14 -40 -20 -22 -7 -40
-16 -40 -21 0 -4 -7 -8 -16 -8 -8 0 -21 -6 -28 -12 -8 -7 -24 -20 -36 -28 -12
-8 -28 -20 -34 -25 -17 -16 -60 -42 -69 -43 -5 0 -24 -12 -43 -27 -19 -14 -34
-23 -34 -20 0 3 -13 -1 -30 -10 -16 -9 -30 -22 -30 -31 0 -28 -31 -49 -72 -48
-34 1 -38 -1 -32 -18 4 -15 -8 -34 -53 -79 -32 -32 -62 -59 -66 -59 -5 0 -46
-37 -92 -82 -100 -100 -140 -136 -186 -168 -19 -13 -41 -31 -49 -40 -8 -8 -28
-22 -45 -30 -16 -8 -38 -21 -48 -29 -15 -12 -23 -13 -52 -2 -29 10 -39 9 -62
-3 -15 -8 -24 -15 -19 -16 13 0 -25 -40 -38 -40 -6 0 -32 11 -58 25 -58 31
-60 31 -52 1 7 -29 -27 -73 -47 -61 -21 14 -87 11 -82 -2 3 -7 16 -13 30 -13
13 0 31 -6 38 -14 12 -12 12 -16 -2 -27 -16 -14 -19 -15 -69 -17 -21 -2 -46
-16 -80 -47 -28 -26 -56 -43 -66 -41 -9 2 -25 -5 -34 -15 -9 -10 -23 -19 -31
-19 -10 0 -12 -6 -8 -20 4 -12 0 -26 -9 -36 -10 -9 -16 -33 -16 -60 0 -43 -2
-46 -39 -62 -32 -14 -40 -23 -45 -50 -6 -40 2 -64 18 -55 10 6 -31 -46 -46
-57 -4 -3 -14 -22 -22 -41 -17 -40 -78 -99 -103 -99 -24 0 -83 -23 -83 -32 0
-4 -6 -8 -13 -8 -32 0 -108 -103 -121 -165 -4 -16 -10 -43 -14 -60 -4 -16 -7
-72 -6 -122 1 -86 3 -97 32 -144 18 -27 32 -54 32 -58 0 -5 13 -14 29 -21 16
-6 35 -25 41 -41 7 -16 20 -29 29 -29 9 0 42 -23 75 -50 32 -28 72 -58 88 -66
36 -19 77 -54 89 -76 6 -12 3 -52 -11 -120 -43 -214 -64 -248 -167 -263 -59
-9 -69 -13 -81 -37 -19 -40 -28 -190 -13 -226 14 -33 92 -76 121 -67 31 10 32
-13 1 -31 -22 -13 -27 -21 -20 -30 11 -13 -4 -64 -19 -64 -20 0 -78 24 -97 40
-27 23 -47 29 -66 19 -25 -13 -39 11 -46 77 -6 53 -5 57 12 50 18 -7 18 -6 1
13 -15 17 -17 26 -8 48 6 16 13 46 16 68 l6 40 -20 -40 c-16 -31 -22 -67 -27
-153 l-6 -113 34 -35 c30 -32 38 -34 69 -28 50 11 133 5 142 -9 10 -14 29 9
27 33 -3 40 3 58 30 87 16 18 26 34 23 37 -3 3 3 6 14 6 28 1 96 35 121 61 62
67 62 67 47 73 -8 3 -13 2 -10 -3 3 -5 -7 -17 -22 -27 -15 -10 -33 -24 -40
-31 -30 -29 -100 -61 -145 -66 -41 -4 -53 -1 -77 19 -50 43 -62 125 -30 210
l12 29 23 -65 c13 -38 19 -69 14 -75 -5 -5 -9 -17 -9 -27 0 -15 3 -17 19 -8
11 5 51 12 88 14 37 2 79 9 93 15 28 13 54 58 37 64 -6 2 -11 26 -11 54 -1 46
-2 49 -13 30 -7 -12 -12 -17 -13 -11 0 6 -18 19 -40 29 -40 18 -40 18 -21 39
10 12 29 51 42 89 12 37 27 67 31 67 5 0 6 -4 3 -10 -4 -6 7 -10 24 -10 21 0
31 -5 31 -15 0 -8 7 -15 15 -15 26 0 16 -21 -29 -64 -38 -35 -43 -43 -30 -54
12 -11 14 -10 14 7 0 26 17 35 56 33 18 -2 37 4 44 13 7 8 19 15 27 15 8 0 11
4 8 10 -3 5 0 7 7 5 8 -3 22 1 33 10 15 11 17 17 7 23 -13 9 -6 42 9 42 11 0
32 40 25 47 -3 4 -16 -2 -27 -13 l-22 -19 7 36 c3 20 20 64 37 99 16 34 28 65
25 68 -9 8 -35 -18 -58 -59 l-21 -38 -26 26 c-14 14 -46 39 -71 56 -25 17 -70
53 -100 81 -31 28 -87 76 -125 106 -120 95 -152 131 -180 200 -71 173 -77 193
-71 248 12 105 78 188 169 213 50 13 118 77 217 203 45 57 87 100 105 108 17
6 59 34 95 61 82 62 87 67 64 61 -10 -3 -52 -30 -93 -60 -41 -30 -76 -52 -79
-49 -15 14 125 126 181 144 31 10 106 59 152 99 6 4 13 9 17 10 34 10 49 21
93 62 63 60 195 160 210 160 18 0 104 70 246 200 171 156 243 218 303 263 28
21 62 49 76 63 24 24 176 134 184 134 3 0 42 23 88 52 83 52 158 94 275 153
33 17 67 36 75 42 7 6 44 23 82 37 39 15 94 44 123 66 28 22 57 40 64 40 6 0
27 10 46 21 79 49 489 64 624 23 11 -3 18 3 22 17 5 19 8 20 21 9 9 -7 16 -18
16 -25 0 -6 11 -17 25 -23 36 -17 50 -15 35 3 -7 8 -20 15 -28 15 -12 0 -13 3
-5 11 15 15 68 -11 67 -32 -1 -9 21 -24 59 -39 33 -14 76 -41 95 -60 20 -19
45 -42 57 -50 95 -65 248 -219 321 -320 74 -104 96 -130 87 -106 -7 22 -89
138 -149 213 -55 68 -153 161 -308 294 -11 9 68 89 87 89 6 -1 -1 -11 -17 -24
-28 -23 -28 -46 0 -46 7 0 19 9 26 20 7 11 16 20 20 20 15 0 8 -20 -14 -42
l-21 -21 24 -10 c23 -10 23 -11 -11 -17 l-35 -6 31 -16 c44 -24 88 -30 121
-17 19 7 29 7 31 0 2 -6 8 -11 13 -11 6 0 7 4 4 10 -3 5 5 15 19 22 43 19 31
31 -21 23 -27 -4 -57 -8 -68 -9 -11 0 -24 -5 -28 -11 -5 -6 -7 -4 -4 5 2 8 -2
23 -10 32 -13 15 -12 18 14 34 68 42 103 67 103 75 0 12 -17 11 -25 -1 -4 -6
-10 -8 -14 -6 -4 3 -14 -4 -21 -15 -8 -10 -20 -19 -27 -19 -7 0 -13 -5 -13
-12 0 -6 -9 -1 -20 12 -26 31 -25 39 8 50 38 14 73 33 68 37 -2 2 -16 -2 -32
-9 -40 -16 -106 -18 -121 -2 -16 16 -17 28 -1 18 7 -4 8 -3 4 4 -10 17 -18 15
-49 -14 -27 -24 -29 -25 -41 -8 -14 19 -10 54 7 54 6 0 8 2 5 6 -3 3 -21 -4
-39 -15 -19 -12 -40 -21 -47 -21 -15 0 -36 -19 -45 -40 -4 -12 -6 -11 -6 3 -1
18 -41 25 -41 7 0 -17 -36 -11 -54 9 -14 16 -15 19 -2 24 8 3 17 3 20 -1 11
-10 36 -11 36 -1 0 5 -4 9 -10 9 -23 0 -8 25 16 27 37 2 54 21 32 37 -24 17
-139 21 -156 4z m-260 -77 c4 -3 -23 -7 -59 -8 -40 -2 -63 1 -57 6 19 19 97
20 116 2z m203 -11 l30 -21 -30 7 c-37 8 -45 13 -45 25 0 14 12 11 45 -11z
m333 -72 c-10 -22 -56 -24 -83 -5 -18 14 -13 43 6 32 5 -4 21 3 36 14 l26 21
12 -22 c7 -14 8 -30 3 -40z m-2558 -1078 c0 -5 -8 -10 -17 -10 -15 0 -16 2 -3
10 19 12 20 12 20 0z m-186 -56 c26 -10 18 -24 -14 -24 -20 0 -30 5 -30 15 0
16 17 19 44 9z m99 -34 c-34 -31 -79 -48 -91 -35 -4 4 -1 10 7 13 7 2 22 13
31 22 16 16 38 24 75 28 6 1 -5 -12 -22 -28z m-93 -95 c-12 -13 -27 -22 -32
-19 -5 3 -43 -17 -85 -45 -77 -52 -101 -61 -60 -24 18 17 182 111 196 113 3 0
-6 -11 -19 -25z m-833 -1027 c26 -55 38 -102 23 -93 -13 8 -43 75 -54 118 -9
39 6 27 31 -25z m527 -551 c15 -24 -20 -60 -46 -46 -10 5 -16 14 -13 20 4 5 1
9 -6 9 -8 0 -8 4 1 15 7 8 16 12 21 9 5 -3 9 0 9 6 0 16 21 8 34 -13z m-14
-76 c0 -6 -4 -13 -10 -16 -5 -3 -10 1 -10 9 0 9 5 16 10 16 6 0 10 -4 10 -9z
m-45 -101 c-3 -5 -12 -10 -18 -10 -7 0 -6 4 3 10 19 12 23 12 15 0z m-222
-105 c12 -14 32 -50 42 -81 23 -67 16 -76 -60 -72 -47 3 -50 4 -58 38 -18 70
-20 122 -6 131 25 16 58 9 82 -16z m86 -69 c23 -37 25 -46 11 -46 -11 0 -30
32 -35 61 -5 27 0 24 24 -15z"/>
<path d="M5679 8589 c-13 -10 -31 -19 -39 -19 -9 0 0 -15 24 -38 52 -49 87
-72 111 -72 13 0 4 9 -27 27 -27 14 -48 32 -48 39 0 12 57 34 86 34 13 0 49
38 43 45 -3 2 -22 -1 -42 -7 -26 -8 -43 -8 -60 -1 -19 9 -28 7 -48 -8z m11
-39 c0 -5 -2 -10 -4 -10 -3 0 -8 5 -11 10 -3 6 -1 10 4 10 6 0 11 -4 11 -10z"/>
<path d="M5916 8539 c-21 -13 -74 -18 -78 -8 -2 3 -16 -6 -33 -22 l-29 -28 42
-7 c41 -6 49 -24 11 -24 -19 0 -18 -4 12 -42 18 -24 55 -66 81 -95 26 -28 48
-56 48 -61 0 -5 11 -22 25 -38 14 -16 35 -44 46 -61 18 -29 19 -35 5 -48 -8
-8 -19 -15 -25 -15 -17 0 -101 -43 -101 -52 0 -11 7 -10 42 8 17 9 41 14 54
11 13 -2 25 1 27 7 3 8 9 7 19 -2 11 -9 17 -9 20 -2 2 6 11 8 21 4 10 -3 16
-11 14 -18 -2 -6 2 -17 10 -24 13 -13 18 -52 7 -52 -3 0 -14 5 -26 11 -35 19
-32 1 6 -34 23 -22 36 -44 36 -60 0 -18 14 -37 50 -67 58 -49 77 -80 82 -134
3 -33 -1 -40 -21 -47 -20 -8 -29 -4 -58 27 -19 20 -49 67 -68 104 -19 38 -39
71 -44 75 -6 3 -15 23 -21 44 -5 20 -21 48 -35 61 -21 20 -29 22 -47 12 -13
-6 -38 -14 -56 -17 -18 -4 -35 -12 -38 -19 -3 -7 11 -47 31 -88 41 -88 41 -88
18 -89 -10 0 3 -11 29 -23 26 -12 55 -29 64 -37 11 -9 34 -13 64 -11 41 3 50
0 68 -22 27 -35 67 -41 133 -21 39 12 108 18 254 21 110 3 218 9 241 14 25 6
84 6 155 -1 100 -8 117 -12 138 -34 20 -19 22 -27 12 -38 -15 -19 -48 -11 -62
15 -20 37 -40 -12 -23 -56 8 -20 24 -21 24 -1 0 21 20 18 49 -6 l25 -20 -30
-24 c-36 -30 -17 -32 37 -4 47 24 57 20 43 -18 -6 -19 -19 -29 -42 -34 -17 -3
-39 -12 -47 -19 -13 -11 -10 -17 24 -47 47 -39 58 -75 53 -155 -3 -46 -9 -64
-32 -88 -17 -18 -38 -30 -54 -30 -16 0 -31 -9 -42 -25 -9 -14 -25 -25 -35 -25
-28 0 -31 -17 -4 -24 27 -7 65 8 65 26 0 6 11 8 26 5 20 -3 28 1 36 19 6 13
19 26 30 30 58 18 62 178 7 254 -35 48 -36 53 -6 45 40 -12 86 -75 87 -118 0
-23 8 -49 20 -64 11 -14 20 -34 20 -43 0 -17 35 -52 76 -76 18 -10 18 -12 1
-37 -9 -14 -17 -35 -17 -45 0 -10 -9 -35 -20 -57 -11 -22 -20 -47 -20 -57 0
-9 -4 -20 -10 -23 -5 -3 -10 -13 -10 -22 0 -12 3 -13 14 -4 11 10 18 9 33 -3
10 -8 33 -27 51 -41 47 -39 44 -72 -15 -132 -27 -27 -36 -35 -20 -18 15 17 27
38 27 47 0 28 -41 109 -53 105 -7 -2 -20 2 -29 11 -16 14 -18 13 -18 -4 -1
-10 -19 -37 -40 -59 -43 -43 -47 -54 -28 -73 9 -9 9 -12 1 -12 -7 0 -15 5 -18
10 -9 15 -32 12 -39 -6 -4 -10 5 -25 24 -41 38 -31 34 -38 -11 -19 -30 13 -38
12 -70 -3 -20 -10 -45 -27 -57 -39 -12 -12 -28 -22 -35 -22 -8 0 -23 -11 -36
-24 -15 -16 -29 -22 -46 -18 -20 3 -25 0 -25 -15 0 -22 -47 -83 -65 -83 -18 0
-88 -74 -75 -78 14 -5 -58 -82 -76 -82 -7 0 -22 -13 -34 -30 -12 -16 -27 -30
-34 -30 -7 0 -25 -11 -40 -25 -19 -17 -38 -25 -65 -25 -20 0 -60 -6 -87 -14
-27 -8 -74 -18 -104 -21 -53 -7 -207 -53 -246 -73 -10 -5 -41 -15 -68 -21 -27
-6 -76 -24 -110 -40 -33 -15 -74 -33 -90 -40 -23 -9 -26 -14 -16 -26 17 -21
66 -19 87 4 18 18 139 71 164 71 7 0 9 3 6 7 -11 10 26 32 53 33 14 0 54 10
90 23 75 26 110 25 136 -5 18 -20 18 -21 1 -15 -16 6 -18 1 -15 -41 3 -44 6
-48 42 -66 69 -34 255 -34 242 -1 -4 11 7 16 44 21 55 7 90 33 49 36 -13 0
-32 1 -41 0 -28 -3 -21 14 11 28 33 13 84 4 60 -11 -22 -14 3 -10 29 4 l22 13
-32 24 c-31 23 -31 23 -10 31 28 10 50 2 57 -21 3 -10 18 -20 33 -23 33 -6 39
-2 23 16 -9 12 -7 13 13 10 36 -7 38 10 5 32 -54 37 -31 47 35 16 l39 -19 49
34 48 34 11 -27 c7 -16 13 -23 16 -15 3 6 15 12 27 12 12 0 29 6 38 13 20 15
58 82 58 102 0 7 9 17 20 20 22 7 26 20 10 30 -17 11 -11 32 11 38 20 5 20 7
4 31 -15 23 -16 26 -2 26 9 0 21 -8 27 -17 8 -13 13 -14 16 -5 3 6 17 12 31
12 25 0 25 -1 9 -22 -9 -13 -20 -32 -25 -43 -5 -12 -16 -27 -25 -34 -20 -17
-21 -40 0 -48 9 -3 13 -12 9 -21 -3 -8 0 -19 7 -24 10 -7 10 -8 -2 -7 -29 3
-41 -1 -35 -11 4 -6 -25 -43 -63 -83 -38 -40 -78 -88 -90 -107 -43 -73 -220
-203 -395 -291 -60 -30 -128 -71 -153 -91 -25 -20 -53 -39 -63 -43 -11 -3 -26
-31 -41 -73 -13 -37 -31 -79 -42 -94 -10 -14 -18 -30 -18 -35 -1 -11 -50 -110
-78 -155 -13 -20 -34 -69 -47 -108 -14 -40 -29 -78 -34 -84 -5 -6 -17 -31 -27
-56 -9 -25 -30 -63 -45 -85 -23 -33 -29 -55 -35 -130 -12 -156 -11 -337 3
-367 17 -36 16 -40 -7 -26 -28 18 -37 1 -17 -33 23 -41 22 -51 -13 -90 -16
-19 -30 -42 -30 -51 0 -9 -16 -46 -35 -83 -20 -37 -31 -64 -25 -60 14 9 90
124 101 153 5 13 18 26 29 29 11 3 20 14 20 25 0 10 12 31 26 45 25 25 26 27
10 57 -9 17 -23 41 -32 53 -15 20 -14 22 3 21 10 0 41 8 68 19 42 17 55 19 85
9 46 -15 47 -33 5 -80 -19 -21 -35 -45 -35 -53 0 -28 -98 -151 -230 -289 -42
-45 -90 -99 -105 -120 -16 -21 -54 -67 -85 -101 -30 -33 -77 -87 -105 -119
-62 -71 -193 -170 -244 -184 -21 -6 -44 -17 -51 -26 -18 -21 80 18 135 53 77
50 186 147 223 197 34 47 79 96 89 96 2 0 -13 -31 -32 -70 -22 -44 -35 -84
-35 -109 0 -42 -20 -71 -48 -71 -8 0 -43 -18 -77 -40 -34 -22 -89 -50 -121
-61 -32 -12 -75 -29 -94 -39 -100 -51 -136 -72 -169 -97 -45 -35 -82 -55 -89
-48 -14 14 28 59 89 96 37 22 73 47 79 54 10 12 -10 2 -122 -61 -11 -7 -25
-17 -31 -23 -16 -16 -38 -14 -53 7 -12 15 -13 15 -14 -9 0 -25 -8 -31 -73 -58
-36 -14 -38 -14 -31 4 9 23 -7 18 -61 -21 -27 -19 -62 -43 -77 -52 -16 -10
-29 -29 -33 -49 -5 -26 -15 -36 -57 -57 -29 -14 -65 -26 -81 -26 -16 0 -44 -9
-61 -19 -75 -46 -176 -62 -456 -71 -146 -5 -303 -12 -350 -16 -47 -4 -111 -6
-142 -5 -34 1 -84 -6 -123 -18 -63 -20 -119 -19 -131 0 -3 5 -35 9 -72 9 -89
1 -148 13 -182 38 -22 17 -34 19 -65 12 -63 -14 -135 32 -118 75 5 13 2 14
-21 4 -51 -24 -146 25 -146 75 0 19 -4 22 -25 18 -29 -5 -90 36 -100 68 -4 11
-30 31 -62 46 -37 18 -59 35 -66 54 -7 15 -17 25 -23 23 -13 -4 -61 32 -75 58
-9 17 -5 22 24 34 18 7 39 21 47 29 29 35 84 9 109 -52 8 -20 29 -39 55 -52
74 -39 92 -68 64 -100 -8 -8 -3 -7 14 3 48 30 83 22 138 -31 42 -41 55 -48 80
-44 26 4 38 -3 77 -42 32 -32 50 -43 57 -36 13 13 69 13 99 -1 25 -11 47 -47
47 -76 0 -12 6 -9 25 11 38 41 123 31 176 -20 l28 -27 26 25 c34 34 74 41 132
21 30 -10 88 -17 153 -18 58 -1 173 -7 255 -13 161 -11 242 -6 381 26 55 12
92 27 114 45 17 15 36 27 41 27 5 0 9 5 9 11 0 6 -9 9 -19 6 -12 -3 -18 0 -15
7 3 7 -9 22 -25 33 -28 21 -29 21 -24 3 7 -27 -18 -26 -35 0 -19 30 -32 24
-32 -16 0 -43 -19 -42 -34 3 -6 18 -14 34 -17 37 -4 5 -35 12 -60 15 -4 1 -12
15 -19 31 -7 17 -19 30 -26 30 -16 0 -18 -11 -5 -25 4 -6 11 -25 14 -42 5 -24
3 -33 -7 -33 -16 0 -26 21 -26 55 0 29 -24 55 -51 55 -14 0 -21 -9 -26 -31 -3
-17 -12 -33 -19 -36 -8 -3 -14 -11 -14 -19 0 -8 -5 -14 -10 -14 -6 0 -15 -11
-20 -25 -19 -50 -37 -22 -32 53 2 38 -16 72 -37 72 -11 0 -22 -8 -24 -17 -4
-17 -5 -17 -6 0 -1 16 -5 15 -36 -8 -35 -27 -115 -46 -115 -27 0 13 -45 21
-64 10 -9 -5 -23 -4 -34 3 -12 7 -27 9 -38 4 -24 -10 -46 -7 -59 8 -5 7 -32
28 -58 47 -27 19 -60 48 -75 63 -14 15 -45 40 -69 56 -23 16 -61 52 -83 80
-23 29 -47 54 -55 57 -16 6 -164 171 -216 241 -20 26 -40 59 -44 73 -7 24 -28
71 -105 235 -21 44 -52 121 -68 170 -17 50 -45 128 -63 175 -17 47 -39 114
-49 150 -16 61 -25 98 -52 195 -14 54 -10 233 7 317 19 89 19 91 -5 83 -41
-13 -61 30 -44 93 6 19 11 22 31 17 23 -5 24 -5 10 15 -8 12 -28 31 -45 43
-16 12 -47 45 -67 72 -21 28 -57 71 -81 97 -24 25 -46 59 -50 75 -11 46 -54
124 -64 118 -12 -7 -30 36 -30 68 1 12 9 40 20 62 23 48 24 55 6 55 -8 0 -20
-17 -27 -37 -6 -21 -15 -42 -19 -48 -17 -23 -17 -69 0 -97 13 -21 16 -42 12
-75 -4 -35 -2 -44 7 -38 13 7 61 -31 61 -48 0 -6 8 -19 17 -29 15 -17 15 -20
3 -28 -13 -8 -13 -10 0 -11 8 -1 20 -1 27 0 17 2 55 -56 51 -78 -4 -25 -212
-253 -284 -311 -10 -8 -36 -28 -59 -44 -22 -16 -56 -47 -75 -68 -19 -22 -101
-108 -183 -191 -122 -126 -247 -278 -247 -302 0 -9 -21 -34 -73 -88 -46 -47
-49 -52 -43 -91 9 -67 10 -115 3 -123 -9 -8 -9 -393 -1 -393 9 0 68 42 76 54
8 12 30 -5 106 -82 39 -39 52 -58 46 -70 -4 -9 -8 -64 -8 -122 -1 -144 -17
-176 -101 -203 -33 -11 -75 -25 -93 -33 l-32 -14 0 -472 c0 -431 2 -476 18
-507 l17 -33 220 -2 c142 -1 219 3 218 9 -1 6 -5 18 -8 28 -5 11 -2 17 8 17
13 0 31 -26 27 -40 -5 -17 188 -28 259 -14 26 6 29 9 19 21 -37 45 48 279 96
265 6 -2 8 -1 4 3 -4 4 -3 17 2 29 5 14 3 28 -6 41 -20 26 -17 69 5 96 16 20
21 21 35 10 21 -17 20 -29 -3 -74 -10 -20 -15 -37 -10 -37 8 0 44 51 52 74 4
12 43 -10 84 -48 19 -17 60 -45 91 -62 31 -16 69 -38 84 -48 l28 -18 -22 -39
c-12 -21 -20 -41 -17 -43 2 -2 20 -7 40 -11 34 -6 37 -5 43 20 4 16 2 33 -5
41 -15 18 -5 18 30 0 43 -22 54 -41 41 -65 -9 -18 -8 -21 10 -21 11 0 20 7 20
15 0 20 8 19 49 -6 19 -11 71 -34 115 -50 44 -17 104 -44 134 -60 l52 -31 353
1 c193 0 525 1 737 1 l385 0 13 28 c23 53 95 64 105 16 3 -18 0 -24 -14 -24
-10 0 -21 -4 -24 -10 -4 -6 93 -10 262 -12 211 -2 274 0 297 11 23 10 34 11
48 2 27 -17 38 -13 38 14 0 31 9 31 63 4 38 -20 51 -21 172 -15 120 7 151 11
243 31 30 7 32 6 32 -18 0 -29 19 -48 21 -20 1 10 1 22 0 27 -4 20 30 54 59
59 37 8 141 77 162 109 9 13 30 39 47 58 54 59 85 135 89 221 4 70 0 89 -39
205 -37 111 -44 146 -50 249 -10 164 -19 196 -94 342 -43 85 -65 139 -65 162
0 19 -5 49 -12 67 -10 30 -9 36 16 66 79 96 176 233 176 248 0 10 7 34 15 53
16 40 20 127 6 155 -68 138 -91 175 -141 227 -80 83 -111 132 -104 161 7 25
-12 58 -27 48 -15 -9 -10 49 6 80 8 16 18 46 21 67 4 22 10 39 15 39 9 0 0
-92 -10 -100 -3 -3 -12 -15 -19 -28 -12 -21 -11 -22 7 -10 17 10 23 9 40 -6
l21 -19 -4 66 c-3 38 -1 67 5 67 5 0 9 -4 9 -9 0 -5 9 -7 20 -4 11 3 20 0 20
-6 0 -6 4 -11 9 -11 4 0 11 21 14 47 3 29 11 50 22 55 14 8 15 19 10 59 -5 34
-3 54 5 64 9 10 11 32 7 65 -5 43 -2 58 24 107 16 31 34 77 40 102 13 58 46
107 82 122 15 6 31 17 35 23 8 13 68 56 78 56 26 0 229 112 254 141 3 3 27 21
55 39 86 59 74 48 203 187 28 31 52 63 52 70 0 8 14 16 30 20 21 4 30 11 30
24 0 11 7 19 15 19 8 0 15 5 15 10 0 7 6 7 19 0 31 -16 32 -12 5 27 -13 20
-22 43 -20 50 3 7 -1 13 -10 13 -22 0 -13 32 14 54 15 12 22 26 19 38 -4 14 2
23 23 31 24 11 26 15 16 29 -7 10 -21 14 -37 11 -33 -6 -81 32 -77 61 4 27 66
60 85 44 14 -11 15 -8 17 34 2 25 0 26 -15 12 -26 -23 -82 -34 -102 -19 -23
16 -11 25 34 25 32 0 44 8 90 55 30 31 57 66 61 78 5 17 6 15 7 -12 1 -23 -6
-43 -21 -58 -24 -25 -14 -31 16 -8 16 12 19 26 17 82 -2 91 -5 98 -66 156 -48
46 -52 53 -43 76 5 14 15 33 22 41 8 8 16 34 19 58 3 24 12 51 21 61 22 24 20
31 -7 31 -13 0 -36 15 -54 34 -29 30 -31 36 -20 60 14 30 24 33 30 9 4 -14 5
-13 6 3 1 29 -29 41 -36 14 -3 -11 -12 -20 -20 -20 -8 0 -12 4 -9 9 3 5 -1 11
-9 15 -23 8 -18 20 18 39 17 10 41 33 53 51 l20 32 -32 -10 c-18 -6 -31 -13
-28 -17 2 -3 -5 -14 -15 -23 -17 -16 -19 -16 -24 4 -4 15 1 24 16 31 56 26
111 58 99 58 -10 1 -70 -23 -113 -46 -4 -1 -18 7 -33 18 -27 22 -34 56 -16 89
8 15 6 21 -7 29 -17 10 -17 10 0 11 9 0 17 5 17 11 0 5 6 7 13 3 7 -4 9 -3 4
2 -9 10 -14 11 -52 13 -20 1 -25 6 -25 27 0 36 -54 86 -112 102 -37 11 -47 20
-62 53 -10 23 -24 39 -34 39 -23 -1 -102 -37 -102 -47 0 -5 -19 -17 -42 -27
-37 -17 -69 -20 -223 -21 -99 -1 -191 -5 -205 -9 -33 -9 -54 13 -70 73 -8 32
-27 60 -66 98 -62 62 -68 88 -24 97 47 9 35 26 -17 26 -35 0 -44 3 -33 10 13
8 13 10 1 10 -12 0 -12 3 -3 12 20 20 15 66 -8 73 -12 4 -38 30 -60 58 -21 29
-49 63 -61 76 -12 14 -17 27 -12 28 6 2 9 13 6 23 -3 11 -9 17 -14 15 -4 -3
-5 -13 -2 -22 4 -11 3 -14 -5 -9 -7 4 -12 13 -12 19 0 7 -25 37 -55 67 -30 30
-55 60 -55 67 0 6 -8 16 -17 22 -10 5 -14 13 -10 18 5 4 18 -3 29 -17 56 -71
101 -110 116 -101 9 5 6 13 -8 29 -18 19 -19 25 -8 44 7 12 19 29 26 36 17 19
7 28 -13 12 -35 -29 -125 -12 -125 23 0 5 18 25 40 44 51 45 55 70 6 42z
m1030 -832 c1 -9 -2 -15 -6 -12 -5 3 -11 1 -15 -5 -4 -6 -11 -8 -16 -4 -5 3
-7 10 -3 15 3 5 2 9 -3 8 -4 -1 -15 -1 -23 0 -26 2 7 17 36 16 18 0 28 -6 30
-18z m194 -157 c0 -5 -5 -10 -11 -10 -5 0 -7 5 -4 10 3 6 8 10 11 10 2 0 4 -4
4 -10z m131 -773 c-10 -9 -11 -8 -5 6 3 10 9 15 12 12 3 -3 0 -11 -7 -18z m3
-166 c-2 -3 -12 3 -22 13 -16 17 -16 18 5 5 12 -7 20 -15 17 -18z m-224 -385
c0 -11 -19 -15 -25 -6 -3 5 1 10 9 10 9 0 16 -2 16 -4z m-210 -41 c37 -19 38
-25 5 -25 -15 0 -25 6 -25 14 0 8 -6 17 -12 19 -7 3 -9 6 -5 6 4 1 21 -6 37
-14z m74 -1 c9 -3 16 -15 16 -25 0 -18 -1 -18 -20 1 -28 28 -27 36 4 24z
m-559 -94 c-3 -5 -10 -10 -16 -10 -5 0 -9 5 -9 10 0 6 7 10 16 10 8 0 12 -4 9
-10z m205 -129 c0 -16 -18 -22 -45 -15 -20 5 -23 9 -13 15 18 12 58 11 58 0z
m-220 -736 c0 -32 -21 -57 -36 -42 -5 4 26 77 33 77 2 0 3 -16 3 -35z m-3543
-67 c-3 -7 -5 -2 -5 12 0 14 2 19 5 13 2 -7 2 -19 0 -25z m3517 -30 c18 -25
21 -68 6 -68 -11 0 -20 17 -24 44 -1 8 -5 19 -9 22 -10 10 -9 24 2 24 6 0 17
-10 25 -22z m-50 -79 c-2 -4 3 -12 11 -19 15 -12 21 -40 9 -40 -11 0 -44 42
-44 55 0 7 3 28 7 46 l7 34 7 -35 c4 -19 6 -37 3 -41z m-104 -300 c15 -27 92
-130 128 -170 21 -24 22 -29 11 -73 l-11 -46 -49 0 c-27 0 -49 4 -49 9 0 16
-53 61 -71 61 -11 0 -19 6 -19 14 0 10 11 12 45 8 30 -3 45 -1 45 7 0 6 -13
11 -29 11 -40 0 -64 26 -57 59 3 14 9 50 12 79 4 28 11 52 15 52 5 0 6 15 4
33 -4 28 -4 29 4 6 4 -14 14 -36 21 -50z m-4353 -459 c52 -23 72 -58 55 -95
-11 -24 0 -36 14 -14 13 22 84 3 120 -32 38 -37 41 -54 18 -87 -21 -30 -10
-41 16 -17 20 18 21 17 83 -47 118 -123 164 -173 173 -189 5 -8 25 -26 44 -39
19 -13 37 -25 39 -27 2 -1 -4 -13 -15 -24 -21 -24 -22 -24 52 -3 12 3 30 -2
45 -14 20 -17 24 -29 24 -71 0 -53 3 -59 22 -40 19 19 57 5 80 -30 21 -31 22
-36 7 -52 -9 -11 -38 -20 -75 -24 -69 -8 -102 7 -114 52 -3 15 -42 64 -85 109
-43 45 -86 96 -95 114 -9 18 -31 38 -49 45 -44 18 -96 63 -96 81 0 8 7 29 16
45 18 36 12 49 -14 26 -29 -27 -50 -20 -95 30 -23 26 -57 60 -75 77 -112 103
-151 135 -180 150 -34 18 -34 19 0 69 23 32 30 33 85 7z m-97 -10 c0 -5 -2
-10 -4 -10 -3 0 -8 5 -11 10 -3 6 -1 10 4 10 6 0 11 -4 11 -10z m4492 -493
c-5 -56 -22 -90 -22 -44 0 15 -3 26 -7 26 -21 -3 -37 2 -28 9 6 4 18 25 28 46
23 50 36 34 29 -37z m48 -108 c0 -16 5 -29 11 -29 5 0 21 -26 35 -57 14 -32
37 -83 51 -115 27 -59 36 -155 16 -180 -13 -17 -46 -154 -41 -170 2 -6 13 16
24 50 10 34 21 62 24 62 3 0 7 -12 8 -27 1 -16 16 -72 33 -126 25 -82 28 -101
17 -114 -8 -10 -13 -42 -13 -78 0 -56 -3 -64 -30 -89 l-30 -27 33 16 c41 20
55 56 47 116 -9 64 10 71 25 10 9 -38 9 -68 1 -123 -12 -74 -35 -118 -103
-193 -15 -16 -37 -42 -50 -56 -24 -28 -96 -69 -83 -49 7 11 -10 29 -27 30 -13
0 -9 -28 5 -33 20 -8 -6 -27 -44 -32 -18 -2 -38 -10 -44 -17 -5 -7 -19 -14
-30 -15 -11 -1 -54 -9 -95 -19 -45 -11 -117 -18 -181 -18 -101 -1 -107 0 -155
30 -28 17 -48 37 -48 46 1 9 23 46 50 82 27 36 68 96 91 133 96 155 182 301
202 340 11 23 25 44 30 48 15 8 119 188 148 253 47 106 89 248 99 335 7 58 24
70 24 16z m-63 9 c-3 -8 -6 -5 -6 6 -1 11 2 17 5 13 3 -3 4 -12 1 -19z m-182
-108 c-10 -11 -20 -18 -23 -15 -7 6 18 35 31 35 5 0 2 -9 -8 -20z m30 -17 c16
-39 16 -95 2 -132 -9 -21 -13 -41 -10 -45 3 -3 1 -18 -6 -33 -6 -15 -13 -39
-16 -53 -3 -14 -10 -27 -16 -29 -5 -1 -14 -14 -19 -26 -12 -31 -50 -53 -50
-29 0 10 -5 14 -15 10 -11 -4 -15 2 -15 25 0 16 -11 47 -24 68 -14 21 -24 46
-22 54 3 22 37 58 47 51 5 -3 10 2 10 10 3 35 5 41 16 39 6 -1 17 4 23 12 7 8
19 15 26 15 8 0 21 18 30 40 18 44 28 50 39 23z m-4113 -146 c-6 -8 -3 -37 9
-82 10 -38 18 -99 17 -135 -1 -36 -3 -57 -5 -47 -6 25 -19 21 -32 -10 -15 -39
-61 -296 -61 -343 0 -21 -5 -42 -10 -45 -6 -4 -7 -11 -4 -17 4 -6 -1 -6 -14 1
-48 26 -37 371 19 562 23 80 23 85 4 69 -8 -7 -15 -18 -15 -26 0 -7 -5 -16
-12 -20 -8 -5 -9 2 -5 26 5 20 23 48 51 74 31 29 47 53 53 81 l8 40 3 -58 c2
-32 -1 -64 -6 -70z m303 31 c27 -36 42 -68 46 -98 4 -25 16 -76 27 -115 12
-38 28 -115 36 -170 10 -69 24 -119 45 -160 40 -79 39 -89 -6 -103 -37 -12
-39 -11 -65 19 -23 27 -30 30 -43 19 -23 -19 -41 2 -55 63 -7 29 -19 57 -27
64 -18 14 -22 114 -9 222 l9 74 24 -69 c14 -38 29 -91 35 -119 16 -69 57 -194
58 -172 0 11 9 21 20 24 25 7 26 19 2 32 -11 6 -26 36 -36 73 -21 72 -46 149
-74 228 -19 53 -44 240 -32 240 3 0 24 -24 45 -52z m1342 -50 c16 -15 20 -29
17 -48 -4 -17 2 -40 16 -65 17 -30 19 -40 8 -47 -9 -7 -5 -8 13 -4 15 3 47 -1
73 -10 41 -14 50 -23 48 -46 -2 -9 20 -25 43 -32 11 -3 -10 -4 -46 -2 -56 3
-74 9 -122 41 -31 21 -57 41 -57 44 0 4 -15 13 -34 19 -36 13 -117 95 -148
149 -23 41 -6 64 53 73 46 6 68 -6 136 -72z m-1584 -25 c5 13 12 15 29 8 27
-10 42 -55 23 -71 -24 -20 -85 32 -85 71 0 7 6 5 13 -5 12 -17 14 -17 20 -3z
m2464 -175 c-3 -8 -6 -5 -6 6 -1 11 2 17 5 13 3 -3 4 -12 1 -19z m943 -267
c15 -29 12 -72 -6 -92 -9 -10 -14 -25 -11 -33 4 -10 18 -2 51 30 26 24 50 44
55 44 34 0 3 -75 -44 -106 -21 -14 -31 -15 -51 -5 -17 8 -31 8 -44 1 -21 -11
-25 -8 -35 37 -5 25 0 47 19 88 26 57 48 69 66 36z m-166 -59 c8 -15 23 -36
35 -46 30 -27 27 -70 -6 -96 -24 -19 -29 -19 -38 -6 -7 8 -17 41 -24 73 -7 32
-17 65 -21 74 -10 20 -3 29 21 29 10 0 25 -12 33 -28z m-2164 -72 c9 -6 10
-10 3 -10 -6 0 -18 -3 -27 -6 -11 -4 -16 -1 -16 10 0 18 17 21 40 6z m2122
-33 c-8 -10 -5 -21 12 -42 22 -27 23 -32 10 -57 -8 -16 -16 -28 -18 -28 -3 0
-11 -3 -20 -6 -10 -4 -16 -1 -16 7 0 8 -15 21 -33 30 -57 28 -43 95 21 102 20
2 41 4 46 5 5 1 4 -4 -2 -11z m-2666 -42 c4 -23 1 -46 -8 -66 l-15 -30 -42 41
c-46 45 -45 44 -31 71 8 14 21 19 50 19 37 0 39 -2 46 -35z m2873 24 c25 -9
31 -16 31 -40 0 -22 -8 -34 -38 -53 -20 -13 -43 -31 -51 -40 -7 -8 -17 -13
-23 -10 -5 3 -20 -1 -33 -10 -19 -13 -24 -13 -28 -2 -7 19 7 35 77 87 32 24
53 45 47 47 -17 6 -111 -49 -132 -78 -32 -43 -41 -51 -47 -45 -3 3 0 11 6 17
7 7 12 20 12 30 0 24 67 86 104 97 42 12 39 12 75 0z m-1409 -8 c0 -5 -6 -11
-12 -13 -9 -3 -7 -10 6 -24 11 -10 21 -18 23 -16 10 7 21 -1 26 -18 3 -11 11
-20 17 -20 10 0 10 3 0 15 -7 8 -11 15 -9 16 26 5 51 7 42 3 -7 -3 -13 -13
-12 -22 0 -11 2 -12 6 -4 2 6 9 10 13 7 5 -3 7 -12 4 -20 -4 -8 -9 -13 -13
-10 -4 2 -8 -2 -8 -10 0 -8 4 -12 9 -9 4 3 8 0 8 -5 0 -6 -7 -11 -15 -11 -14
0 -19 12 -16 33 0 4 -8 7 -19 7 -12 0 -22 -9 -26 -24 -4 -19 -12 -23 -34 -22
-16 1 -27 -1 -25 -5 3 -3 -4 -17 -15 -29 -11 -13 -20 -18 -20 -12 0 7 -9 12
-20 12 -30 0 -35 25 -12 55 19 24 21 25 30 8 5 -10 7 -24 5 -30 -3 -7 0 -13 6
-13 17 0 13 41 -6 62 -15 17 -15 21 3 56 10 20 24 40 29 44 14 11 35 10 35 -1z
m-84 -36 c-8 -19 -28 -52 -45 -72 -31 -40 -64 -93 -80 -130 -14 -30 -32 -39
-43 -19 -5 9 -20 16 -32 16 -13 0 -26 7 -30 15 -3 8 -13 15 -22 15 -12 0 -15
6 -11 23 5 19 4 20 -6 6 -19 -25 -38 -13 -27 17 6 15 6 23 1 19 -5 -3 -12 -1
-16 5 -4 6 5 10 20 10 17 0 24 -4 19 -12 -4 -7 -3 -8 4 -4 6 4 9 13 5 21 -3 9
1 15 10 15 9 0 20 8 26 18 5 9 13 16 18 15 20 -6 95 26 88 37 -8 12 63 36 113
39 22 1 22 0 8 -34z m1714 16 c0 -8 -34 -41 -103 -99 -24 -20 -28 -20 -34 -6
-9 24 10 48 39 52 14 2 38 16 54 33 28 29 44 37 44 20z m-1980 -86 c-7 -9 -15
-13 -18 -10 -3 2 1 11 8 20 7 9 15 13 18 10 3 -2 -1 -11 -8 -20z m470 -5 c0
-5 -5 -10 -11 -10 -5 0 -7 5 -4 10 3 6 8 10 11 10 2 0 4 -4 4 -10z m-1915 -18
c-3 -3 -11 0 -18 7 -9 10 -8 11 6 5 10 -3 15 -9 12 -12z m1852 -8 c-3 -3 -12
-4 -19 -1 -8 3 -5 6 6 6 11 1 17 -2 13 -5z m67 -9 c-4 -8 -8 -15 -10 -15 -2 0
-4 7 -4 15 0 8 4 15 10 15 5 0 7 -7 4 -15z m1326 -3 c0 -4 -7 -18 -16 -30 -14
-21 -22 -23 -66 -18 -75 8 -77 13 -13 38 43 17 95 23 95 10z m-2508 -44 c-7
-7 -12 -8 -12 -2 0 14 12 26 19 19 2 -3 -1 -11 -7 -17z m-839 -12 c14 -20 14
-26 3 -35 -11 -9 -15 -5 -18 24 -2 19 -3 35 -2 35 1 0 9 -11 17 -24z m1442 4
c3 -5 -1 -10 -10 -10 -9 0 -13 5 -10 10 3 6 8 10 10 10 2 0 7 -4 10 -10z
m1780 -10 c9 -15 -5 -34 -17 -22 -10 10 -86 -25 -119 -54 -21 -19 -31 -7 -16
20 14 24 30 36 72 52 39 15 72 17 80 4z m-1629 -53 c11 -11 -19 -8 -36 3 -12
8 -10 9 7 7 12 -2 26 -6 29 -10z m44 4 c0 -5 -7 -12 -16 -15 -14 -5 -15 -4 -4
9 14 17 20 19 20 6z m1410 -12 c0 -12 -13 -26 -61 -62 -38 -29 -49 -27 -49 9
0 25 26 44 59 44 12 0 21 5 21 10 0 6 7 10 15 10 8 0 15 -5 15 -11z"/>
<path d="M6160 4663 c0 -4 9 -21 20 -38 l21 -30 -3 35 c-2 24 -9 36 -20 38
-10 2 -18 0 -18 -5z"/>
<path d="M6120 4620 c0 -5 4 -10 9 -10 6 0 13 5 16 10 3 6 -1 10 -9 10 -9 0
-16 -4 -16 -10z"/>
<path d="M6228 4579 c-28 -16 -21 -30 7 -17 14 6 25 15 25 20 0 11 -11 10 -32
-3z"/>
<path d="M6361 3137 c-1 -10 6 -32 15 -49 15 -29 14 -61 -2 -116 -3 -9 4 -1
15 18 26 45 26 57 -3 116 -14 27 -25 41 -25 31z"/>
<path d="M6300 2949 c-7 -19 -25 -50 -38 -69 l-25 -35 27 25 c28 26 59 86 53
104 -2 5 -9 -6 -17 -25z"/>
<path d="M6216 2824 c-23 -23 -20 -30 4 -9 11 10 20 20 20 22 0 7 -9 2 -24
-13z"/>
<path d="M6260 2818 c0 -12 3 -18 7 -15 3 4 12 2 19 -4 8 -7 14 -6 20 2 5 8 3
9 -5 5 -8 -5 -14 0 -18 13 -7 28 -23 27 -23 -1z"/>
<path d="M6212 2750 c0 -14 2 -19 5 -12 2 6 2 18 0 25 -3 6 -5 1 -5 -13z"/>
<path d="M6322 2728 c-16 -24 -50 -62 -76 -86 -25 -23 -43 -42 -40 -42 24 0
99 71 138 132 30 47 11 44 -22 -4z"/>
<path d="M6144 2694 c3 -9 6 -18 6 -20 0 -2 10 -4 23 -3 12 0 16 3 10 6 -7 2
-13 11 -13 19 0 8 -7 14 -16 14 -11 0 -14 -5 -10 -16z"/>
<path d="M6251 2551 c-8 -6 -9 -11 -3 -15 6 -3 14 -1 17 5 9 14 2 20 -14 10z"/>
<path d="M6060 2546 c0 -9 30 -14 35 -6 4 6 -3 10 -14 10 -12 0 -21 -2 -21 -4z"/>
<path d="M6100 2520 c0 -5 5 -10 10 -10 6 0 10 5 10 10 0 6 -4 10 -10 10 -5 0
-10 -4 -10 -10z"/>
<path d="M5932 2460 c0 -14 2 -19 5 -12 2 6 2 18 0 25 -3 6 -5 1 -5 -13z"/>
<path d="M2195 3127 c-4 -10 -5 -21 -1 -24 10 -10 18 4 13 24 -4 17 -4 17 -12
0z"/>
<path d="M3965 2630 c-8 -13 5 -13 25 0 13 8 13 10 -2 10 -9 0 -20 -4 -23 -10z"/>
<path d="M5910 8161 c0 -6 4 -13 10 -16 6 -3 7 1 4 9 -7 18 -14 21 -14 7z"/>
<path d="M6223 7875 c2 -5 10 -10 17 -10 7 0 15 5 17 10 2 6 -6 11 -17 11 -11
0 -19 -5 -17 -11z"/>
<path d="M3026 7864 c-24 -17 -19 -22 18 -15 24 5 27 8 15 18 -11 9 -18 8 -33
-3z"/>
<path d="M6915 7621 c-30 -7 -30 -7 -5 -12 30 -6 50 -1 50 12 0 10 -1 10 -45
0z"/>
<path d="M6120 7528 c-14 -6 -45 -24 -70 -39 -25 -15 -80 -39 -123 -54 -87
-31 -98 -45 -15 -20 51 15 223 97 243 116 12 12 -3 11 -35 -3z"/>
<path d="M5710 7480 c-24 -15 -7 -19 20 -5 15 8 19 14 10 14 -8 1 -22 -3 -30
-9z"/>
<path d="M6680 7447 c-14 -13 -32 -31 -40 -41 -14 -18 -14 -19 7 -8 18 10 72
73 61 72 -2 0 -14 -11 -28 -23z"/>
<path d="M6836 7421 c-38 -8 -51 -49 -32 -104 16 -49 6 -105 -24 -129 -32 -26
-135 -33 -195 -13 -73 25 -116 54 -113 76 4 24 -12 29 -25 7 -35 -54 77 -122
203 -123 76 0 170 20 170 37 0 5 11 33 24 61 30 66 38 110 26 143 -7 19 -7 31
1 40 12 15 10 15 -35 5z"/>
<path d="M4955 7388 c-106 -35 -136 -51 -175 -96 -50 -57 -104 -162 -118 -232
-22 -113 -24 -146 -7 -160 13 -11 14 -15 1 -29 -7 -9 -16 -31 -18 -49 -4 -30
-2 -33 15 -28 11 3 52 -1 91 -8 39 -8 86 -13 104 -11 17 1 32 -1 32 -5 0 -8
82 -3 110 6 13 5 13 6 0 14 -12 8 -10 10 8 10 51 0 201 95 233 147 22 35 39
123 39 203 0 36 -43 94 -102 140 -29 22 -59 45 -67 51 -7 7 -33 14 -57 17 -49
5 -58 17 -18 25 16 3 37 -4 58 -18 37 -25 127 -58 135 -49 12 12 -64 64 -115
79 -63 18 -72 18 -149 -7z m33 -47 c4 -11 -4 -13 -35 -8 -35 6 -43 3 -64 -21
-31 -34 -175 -250 -200 -300 l-18 -37 -1 40 c0 86 123 279 209 325 40 22 102
22 109 1z m158 -72 c13 -13 24 -26 24 -30 0 -8 -75 26 -105 48 -19 14 -17 15
19 9 21 -3 49 -15 62 -27z m-78 -192 c8 -9 5 -21 -9 -45 -20 -30 -22 -31 -51
-19 -45 18 -58 43 -33 61 25 19 79 20 93 3z m-295 -100 c30 -50 119 -137 142
-137 8 0 15 -4 15 -10 0 -15 -66 -12 -105 4 -46 20 -115 76 -115 94 0 11 3 12
14 3 11 -9 15 -7 19 11 4 13 2 27 -3 32 -13 13 -13 46 -1 46 5 0 20 -19 34
-43z m443 -29 c-9 -5 -16 -14 -16 -21 0 -7 -10 -18 -21 -26 -21 -12 -20 -11 2
19 13 18 28 38 34 46 7 10 11 10 14 3 2 -7 -4 -16 -13 -21z m-166 -97 c0 -12
-26 -21 -58 -20 -26 0 -25 1 8 14 43 17 50 17 50 6z m-325 -30 c10 -17 -12
-21 -25 -6 -10 12 -10 15 3 15 9 0 18 -4 22 -9z m45 -21 c0 -5 -4 -10 -10 -10
-5 0 -10 5 -10 10 0 6 5 10 10 10 6 0 10 -4 10 -10z"/>
<path d="M5735 7390 c-8 -13 55 -13 75 0 11 7 4 10 -27 10 -23 0 -45 -4 -48
-10z"/>
<path d="M6190 7370 c-9 -6 -10 -10 -3 -10 6 0 15 5 18 10 8 12 4 12 -15 0z"/>
<path d="M5280 7330 c0 -5 5 -10 10 -10 6 0 10 5 10 10 0 6 -4 10 -10 10 -5 0
-10 -4 -10 -10z"/>
<path d="M6095 7318 c-21 -11 -125 -115 -125 -124 0 -8 88 66 124 105 32 33
32 36 1 19z"/>
<path d="M5445 7313 c-11 -3 -24 -9 -29 -14 -17 -15 37 -10 58 6 20 15 12 18
-29 8z"/>
<path d="M6065 7160 c-3 -6 1 -7 9 -4 18 7 21 14 7 14 -6 0 -13 -4 -16 -10z"/>
<path d="M7300 7111 c0 -5 7 -14 15 -21 12 -10 15 -10 15 3 0 8 -7 17 -15 21
-8 3 -15 2 -15 -3z"/>
<path d="M7196 7003 c-4 -48 -9 -110 -11 -138 l-5 -50 15 50 c14 49 23 210 12
221 -3 3 -8 -34 -11 -83z"/>
<path d="M2853 6728 c-55 -56 -93 -105 -93 -118 0 -6 17 7 38 30 20 23 54 59
75 81 21 21 32 39 25 39 -8 0 -28 -15 -45 -32z"/>
<path d="M3017 6723 c-15 -17 -49 -104 -43 -110 2 -2 17 24 35 58 33 63 36 82
8 52z"/>
<path d="M2905 6654 c-16 -20 -22 -35 -15 -32 18 6 65 68 52 68 -5 0 -22 -16
-37 -36z"/>
<path d="M7345 6600 c-3 -5 -1 -10 4 -10 6 0 11 5 11 10 0 6 -2 10 -4 10 -3 0
-8 -4 -11 -10z"/>
<path d="M2919 6584 c-7 -9 -23 -20 -35 -25 -26 -9 -104 -104 -104 -125 0 -8
-21 -37 -46 -64 -25 -27 -43 -53 -40 -58 3 -5 -1 -24 -10 -41 -22 -44 -10 -51
26 -16 20 19 28 35 24 47 -3 12 6 32 25 57 17 21 31 44 31 50 0 6 9 20 19 30
11 11 27 34 36 52 9 17 36 49 58 70 23 21 39 39 36 39 -4 0 -13 -7 -20 -16z"/>
<path d="M3009 6574 c-13 -14 -39 -32 -58 -40 -40 -17 -37 -29 3 -14 33 12 96
59 96 71 0 16 -16 9 -41 -17z"/>
<path d="M7310 6473 c0 -17 5 -35 10 -38 13 -8 13 35 0 55 -7 11 -10 7 -10
-17z"/>
<path d="M3009 6470 c-18 -15 -20 -19 -8 -20 9 0 24 9 34 20 23 26 4 26 -26 0z"/>
<path d="M2876 6429 c-23 -27 -33 -49 -22 -49 2 0 15 18 30 40 31 48 28 52 -8
9z"/>
<path d="M2927 6350 c-32 -39 -54 -70 -48 -70 11 0 121 118 121 131 0 20 -17
6 -73 -61z"/>
<path d="M3010 6272 c0 -10 -13 -39 -30 -65 -30 -47 -30 -47 -4 -31 36 24 71
114 44 114 -5 0 -10 -8 -10 -18z"/>
<path d="M2816 6197 c-62 -60 -74 -88 -22 -54 33 22 92 94 83 103 -2 2 -30
-20 -61 -49z"/>
<path d="M2914 6123 c-9 -16 -33 -42 -53 -60 -19 -17 -33 -35 -30 -38 11 -10
69 46 90 86 22 45 18 52 -7 12z"/>
<path d="M2970 6039 c-16 -37 -76 -73 -143 -85 -58 -10 -54 -24 5 -17 90 9
166 68 156 118 -2 14 -7 9 -18 -16z"/>
<path d="M3004 5899 c-26 -51 -44 -108 -35 -114 5 -3 16 12 24 33 9 20 23 54
31 75 20 45 3 50 -20 6z"/>
<path d="M2932 5818 c-14 -14 -16 -28 -3 -28 5 0 11 9 14 20 6 23 5 24 -11 8z"/>
<path d="M2959 5730 c-4 -14 -10 -34 -14 -45 -7 -19 -7 -19 9 -4 11 10 16 27
14 45 -3 29 -3 29 -9 4z"/>
<path d="M2998 5700 c-5 -33 6 -50 16 -24 9 23 7 54 -3 54 -5 0 -11 -14 -13
-30z"/>
<path d="M2158 5693 c7 -3 16 -2 19 1 4 3 -2 6 -13 5 -11 0 -14 -3 -6 -6z"/>
<path d="M1835 5609 c-4 -6 -5 -12 -2 -15 2 -3 7 2 10 11 7 17 1 20 -8 4z"/>
<path d="M2997 5585 c-9 -19 -17 -44 -17 -54 0 -10 -15 -38 -34 -62 -19 -23
-32 -47 -30 -51 3 -5 -14 -27 -38 -48 -31 -29 -38 -40 -25 -40 20 0 67 46 67
66 0 8 16 32 35 53 23 26 41 59 51 97 18 70 14 88 -9 39z"/>
<path d="M2865 5420 c-3 -5 1 -10 9 -10 8 0 18 5 21 10 3 6 -1 10 -9 10 -8 0
-18 -4 -21 -10z"/>
<path d="M5975 4748 c-38 -39 -61 -69 -51 -65 10 4 22 7 26 7 16 0 80 62 96
91 31 62 11 52 -71 -33z"/>
<path d="M1710 3574 c-14 -7 -29 -15 -35 -18 -16 -6 7 -23 41 -29 27 -5 33 -2
43 19 19 43 -1 55 -49 28z"/>
<path d="M1695 3475 c-23 -10 -25 -14 -10 -14 21 -1 52 15 45 23 -3 2 -18 -2
-35 -9z"/>
<path d="M1735 3420 l-20 -9 20 0 c11 0 27 4 35 9 13 9 13 10 0 9 -8 0 -24 -4
-35 -9z"/>
<path d="M2560 2681 c0 -9 65 -62 97 -79 15 -9 24 -9 28 -1 4 6 5 11 4 13 -2
1 -21 14 -41 29 -41 30 -88 51 -88 38z"/>
<path d="M2717 2674 c-9 -10 -9 -64 1 -64 4 0 25 -16 47 -34 l40 -35 -35 8
c-20 4 -46 13 -59 20 -12 7 -25 10 -28 7 -8 -8 36 -44 75 -62 17 -8 32 -21 32
-29 0 -24 -31 -30 -63 -12 -17 11 -27 12 -25 5 5 -15 17 -21 118 -58 47 -18
89 -36 94 -41 17 -16 36 -10 36 11 0 11 -7 20 -15 20 -9 0 -34 9 -55 20 -22
11 -40 18 -40 15 0 -3 -9 -1 -21 5 -16 9 -18 14 -9 25 8 10 8 19 1 34 -6 11
-8 26 -5 34 3 8 -10 34 -29 58 -18 25 -38 53 -43 62 -6 10 -13 14 -17 11z"/>
<path d="M2630 2505 c7 -9 15 -13 17 -11 7 7 -7 26 -19 26 -6 0 -6 -6 2 -15z"/>
<path d="M3025 2379 c-4 -6 -4 -13 -1 -16 8 -8 36 5 36 17 0 13 -27 13 -35 -1z"/>
<path d="M3070 2376 c0 -13 12 -16 67 -16 36 0 63 3 59 7 -3 4 -12 8 -19 9
-105 16 -107 16 -107 0z"/>
<path d="M3255 2370 c-4 -6 11 -10 37 -9 33 0 38 2 23 9 -28 12 -53 12 -60 0z"/>
</g>
</svg>
